<svg width="30" height="30" viewBox="0 0 30 30" fill="none" xmlns="http://www.w3.org/2000/svg">
<path fill-rule="evenodd" clip-rule="evenodd" d="M15 3.75C11.9445 3.75 11.562 3.76275 10.362 3.8175C9.16425 3.87225 8.346 4.06275 7.6305 4.341C6.8805 4.623 6.20025 5.0655 5.63775 5.6385C5.06567 6.20035 4.62289 6.88012 4.34025 7.6305C4.0635 8.346 3.87225 9.165 3.8175 10.3628C3.7635 11.562 3.75 11.9438 3.75 15C3.75 18.0562 3.76275 18.438 3.8175 19.638C3.87225 20.8358 4.06275 21.654 4.341 22.3695C4.623 23.1195 5.0655 23.7997 5.6385 24.3622C6.20037 24.9343 6.88013 25.3771 7.6305 25.6597C8.346 25.9372 9.16425 26.1277 10.362 26.1825C11.562 26.2372 11.9445 26.25 15 26.25C18.0555 26.25 18.438 26.2372 19.638 26.1825C20.8358 26.1277 21.654 25.9372 22.3695 25.659C23.1195 25.377 23.7997 24.9345 24.3622 24.3615C24.9343 23.7996 25.3771 23.1199 25.6597 22.3695C25.9372 21.654 26.1277 20.8358 26.1825 19.638C26.2372 18.438 26.25 18.0555 26.25 15C26.25 11.9445 26.2372 11.562 26.1825 10.362C26.1277 9.16425 25.9372 8.346 25.659 7.6305C25.3766 6.8798 24.9338 6.19974 24.3615 5.63775C23.7996 5.06567 23.1199 4.62289 22.3695 4.34025C21.654 4.0635 20.835 3.87225 19.6373 3.8175C18.438 3.7635 18.0562 3.75 15 3.75ZM15 5.77725C18.0038 5.77725 18.36 5.7885 19.5465 5.8425C20.643 5.89275 21.2385 6.075 21.6353 6.23025C22.1603 6.4335 22.5353 6.678 22.929 7.071C23.3228 7.46475 23.5665 7.83975 23.7698 8.36475C23.9243 8.7615 24.1072 9.357 24.1575 10.4535C24.2115 11.64 24.2228 11.9962 24.2228 15C24.2228 18.0038 24.2115 18.36 24.1575 19.5465C24.1072 20.643 23.925 21.2385 23.7698 21.6353C23.5897 22.1239 23.3024 22.566 22.929 22.929C22.5661 23.3025 22.124 23.5898 21.6353 23.7698C21.2385 23.9243 20.643 24.1072 19.5465 24.1575C18.36 24.2115 18.0045 24.2228 15 24.2228C11.9955 24.2228 11.64 24.2115 10.4535 24.1575C9.357 24.1072 8.7615 23.925 8.36475 23.7698C7.87609 23.5897 7.434 23.3024 7.071 22.929C6.69763 22.566 6.41035 22.1239 6.23025 21.6353C6.07575 21.2385 5.89275 20.643 5.8425 19.5465C5.7885 18.36 5.77725 18.0038 5.77725 15C5.77725 11.9962 5.7885 11.64 5.8425 10.4535C5.89275 9.357 6.075 8.7615 6.23025 8.36475C6.4335 7.83975 6.678 7.46475 7.071 7.071C7.43396 6.69753 7.87606 6.41023 8.36475 6.23025C8.7615 6.07575 9.357 5.89275 10.4535 5.8425C11.64 5.7885 11.9962 5.77725 15 5.77725V5.77725Z" fill="white"/>
<path fill-rule="evenodd" clip-rule="evenodd" d="M15.0003 18.7532C14.5073 18.7532 14.0192 18.6561 13.5638 18.4675C13.1083 18.2789 12.6945 18.0024 12.346 17.6538C11.9974 17.3052 11.7209 16.8914 11.5323 16.436C11.3436 15.9806 11.2465 15.4924 11.2465 14.9995C11.2465 14.5065 11.3436 14.0184 11.5323 13.563C11.7209 13.1076 11.9974 12.6938 12.346 12.3452C12.6945 11.9966 13.1083 11.7201 13.5638 11.5315C14.0192 11.3428 14.5073 11.2457 15.0003 11.2457C15.9958 11.2457 16.9506 11.6412 17.6546 12.3452C18.3585 13.0492 18.754 14.0039 18.754 14.9995C18.754 15.995 18.3585 16.9498 17.6546 17.6538C16.9506 18.3578 15.9958 18.7532 15.0003 18.7532ZM15.0003 9.21699C13.4667 9.21699 11.9959 9.82622 10.9114 10.9106C9.827 11.9951 9.21777 13.4659 9.21777 14.9995C9.21777 16.5331 9.827 18.0039 10.9114 19.0883C11.9959 20.1728 13.4667 20.782 15.0003 20.782C16.5339 20.782 18.0047 20.1728 19.0891 19.0883C20.1735 18.0039 20.7828 16.5331 20.7828 14.9995C20.7828 13.4659 20.1735 11.9951 19.0891 10.9106C18.0047 9.82622 16.5339 9.21699 15.0003 9.21699ZM22.465 9.11199C22.465 9.47451 22.321 9.82218 22.0647 10.0785C21.8083 10.3349 21.4607 10.4789 21.0981 10.4789C20.7356 10.4789 20.388 10.3349 20.1316 10.0785C19.8753 9.82218 19.7313 9.47451 19.7313 9.11199C19.7313 8.74947 19.8753 8.4018 20.1316 8.14547C20.388 7.88913 20.7356 7.74512 21.0981 7.74512C21.4607 7.74512 21.8083 7.88913 22.0647 8.14547C22.321 8.4018 22.465 8.74947 22.465 9.11199Z" fill="white"/>
</svg>
