<svg width="165" height="30" viewBox="0 0 165 30" fill="none" xmlns="http://www.w3.org/2000/svg">
<path d="M8.61953 28.86C7.1262 28.86 5.79286 28.5267 4.61953 27.86C3.4462 27.1933 2.5262 26.2467 1.85953 25.02C1.19286 23.7933 0.859531 22.3267 0.859531 20.62V8.78H4.97953V20.34C4.97953 22.0467 5.4062 23.3133 6.25953 24.14C7.11286 24.94 8.29953 25.34 9.81953 25.34C11.4995 25.34 12.8462 24.78 13.8595 23.66C14.8995 22.5133 15.4195 20.8733 15.4195 18.74V8.78H19.5395V28.5H15.4995V25.54H14.8595C14.4862 26.34 13.8195 27.1 12.8595 27.82C11.8995 28.5133 10.4862 28.86 8.61953 28.86ZM21.6298 28.5V0.499998H25.7498V11.58H26.3898C26.6565 11.0733 27.0298 10.58 27.5098 10.1C28.0165 9.62 28.6698 9.23333 29.4698 8.94C30.2965 8.62 31.3365 8.46 32.5898 8.46C34.0832 8.46 35.4032 8.79333 36.5498 9.46C37.7232 10.1267 38.6432 11.0733 39.3098 12.3C39.9765 13.5 40.3098 14.9533 40.3098 16.66V28.5H36.1898V16.98C36.1898 15.2733 35.7632 14.02 34.9098 13.22C34.0565 12.3933 32.8832 11.98 31.3898 11.98C29.6832 11.98 28.3098 12.54 27.2698 13.66C26.2565 14.78 25.7498 16.4067 25.7498 18.54V28.5H21.6298ZM49.4867 28.86C47.9934 28.86 46.6601 28.5267 45.4867 27.86C44.3134 27.1933 43.3934 26.2467 42.7267 25.02C42.0601 23.7933 41.7267 22.3267 41.7267 20.62V8.78H45.8467V20.34C45.8467 22.0467 46.2734 23.3133 47.1267 24.14C47.9801 24.94 49.1667 25.34 50.6867 25.34C52.3667 25.34 53.7134 24.78 54.7267 23.66C55.7667 22.5133 56.2867 20.8733 56.2867 18.74V8.78H60.4067V28.5H56.3667V25.54H55.7267C55.3534 26.34 54.6867 27.1 53.7267 27.82C52.7667 28.5133 51.3534 28.86 49.4867 28.86ZM62.497 28.5V0.499998H66.617V28.5H62.497ZM76.2914 28.86C74.7981 28.86 73.4647 28.5267 72.2914 27.86C71.1181 27.1933 70.1981 26.2467 69.5314 25.02C68.8647 23.7933 68.5314 22.3267 68.5314 20.62V8.78H72.6514V20.34C72.6514 22.0467 73.0781 23.3133 73.9314 24.14C74.7847 24.94 75.9714 25.34 77.4914 25.34C79.1714 25.34 80.5181 24.78 81.5314 23.66C82.5714 22.5133 83.0914 20.8733 83.0914 18.74V8.78H87.2114V28.5H83.1714V25.54H82.5314C82.1581 26.34 81.4914 27.1 80.5314 27.82C79.5714 28.5133 78.1581 28.86 76.2914 28.86ZM89.3017 28.5V8.78H93.3417V11.1H93.9817C94.3551 10.4067 94.9551 9.79333 95.7817 9.26C96.6084 8.72666 97.7284 8.46 99.1417 8.46C100.608 8.46 101.782 8.76667 102.662 9.38C103.568 9.96667 104.248 10.7267 104.702 11.66H105.342C105.795 10.7533 106.448 9.99333 107.302 9.38C108.182 8.76667 109.422 8.46 111.022 8.46C112.302 8.46 113.435 8.72666 114.422 9.26C115.408 9.76667 116.195 10.54 116.782 11.58C117.368 12.5933 117.662 13.86 117.662 15.38V28.5H113.542V15.7C113.542 14.5 113.208 13.58 112.542 12.94C111.902 12.2733 110.982 11.94 109.782 11.94C108.502 11.94 107.475 12.3533 106.702 13.18C105.928 14.0067 105.542 15.1933 105.542 16.74V28.5H101.422V15.7C101.422 14.5 101.088 13.58 100.422 12.94C99.7817 12.2733 98.8617 11.94 97.6617 11.94C96.3817 11.94 95.3551 12.3533 94.5817 13.18C93.8084 14.0067 93.4217 15.1933 93.4217 16.74V28.5H89.3017ZM128.639 29.06C126.639 29.06 124.892 28.6467 123.399 27.82C121.905 26.9667 120.732 25.78 119.879 24.26C119.052 22.7133 118.639 20.9267 118.639 18.9V18.42C118.639 16.3667 119.052 14.58 119.879 13.06C120.705 11.5133 121.852 10.3267 123.319 9.5C124.812 8.64667 126.532 8.22 128.479 8.22C130.372 8.22 132.025 8.64667 133.439 9.5C134.879 10.3267 135.999 11.4867 136.799 12.98C137.599 14.4733 137.999 16.22 137.999 18.22V19.78H122.839C122.892 21.5133 123.465 22.9 124.559 23.94C125.679 24.9533 127.065 25.46 128.719 25.46C130.265 25.46 131.425 25.1133 132.199 24.42C132.999 23.7267 133.612 22.9267 134.039 22.02L137.439 23.78C137.065 24.5267 136.519 25.3133 135.799 26.14C135.105 26.9667 134.185 27.66 133.039 28.22C131.892 28.78 130.425 29.06 128.639 29.06ZM122.879 16.62H133.799C133.692 15.1267 133.159 13.9667 132.199 13.14C131.239 12.2867 129.985 11.86 128.439 11.86C126.892 11.86 125.625 12.2867 124.639 13.14C123.679 13.9667 123.092 15.1267 122.879 16.62ZM138.958 28.5V8.78H142.998V11.74H143.638C144.011 10.94 144.678 10.1933 145.638 9.5C146.598 8.80667 148.025 8.46 149.918 8.46C151.411 8.46 152.731 8.79333 153.878 9.46C155.051 10.1267 155.971 11.0733 156.638 12.3C157.305 13.5 157.638 14.9533 157.638 16.66V28.5H153.518V16.98C153.518 15.2733 153.091 14.02 152.238 13.22C151.385 12.3933 150.211 11.98 148.718 11.98C147.011 11.98 145.638 12.54 144.598 13.66C143.585 14.78 143.078 16.4067 143.078 18.54V28.5H138.958ZM159.567 28.5V8.78H163.687V28.5H159.567ZM161.647 6.1C160.847 6.1 160.167 5.84667 159.607 5.34C159.074 4.80666 158.807 4.12666 158.807 3.3C158.807 2.47333 159.074 1.80667 159.607 1.3C160.167 0.766665 160.847 0.499998 161.647 0.499998C162.474 0.499998 163.154 0.766665 163.687 1.3C164.221 1.80667 164.487 2.47333 164.487 3.3C164.487 4.12666 164.221 4.80666 163.687 5.34C163.154 5.84667 162.474 6.1 161.647 6.1Z" fill="white"/>
</svg>
