<svg width="164" height="29" viewBox="0 0 164 29" fill="none" xmlns="http://www.w3.org/2000/svg">
<path d="M7.85781 28.36C6.36448 28.36 5.03115 28.0267 3.85781 27.36C2.68448 26.6933 1.76448 25.7467 1.09781 24.52C0.431146 23.2933 0.0978126 21.8267 0.0978126 20.12V8.28H4.21781V19.84C4.21781 21.5467 4.64448 22.8133 5.49781 23.64C6.35115 24.44 7.53781 24.84 9.05781 24.84C10.7378 24.84 12.0845 24.28 13.0978 23.16C14.1378 22.0133 14.6578 20.3733 14.6578 18.24V8.28H18.7778V28H14.7378V25.04H14.0978C13.7245 25.84 13.0578 26.6 12.0978 27.32C11.1378 28.0133 9.72448 28.36 7.85781 28.36ZM20.8681 28V-1.90735e-06H24.9881V11.08H25.6281C25.8948 10.5733 26.2681 10.08 26.7481 9.6C27.2548 9.12 27.9081 8.73333 28.7081 8.44C29.5348 8.12 30.5748 7.96 31.8281 7.96C33.3215 7.96 34.6415 8.29333 35.7881 8.96C36.9615 9.62667 37.8815 10.5733 38.5481 11.8C39.2148 13 39.5481 14.4533 39.5481 16.16V28H35.4281V16.48C35.4281 14.7733 35.0015 13.52 34.1481 12.72C33.2948 11.8933 32.1215 11.48 30.6281 11.48C28.9215 11.48 27.5481 12.04 26.5081 13.16C25.4948 14.28 24.9881 15.9067 24.9881 18.04V28H20.8681ZM48.725 28.36C47.2317 28.36 45.8983 28.0267 44.725 27.36C43.5517 26.6933 42.6317 25.7467 41.965 24.52C41.2983 23.2933 40.965 21.8267 40.965 20.12V8.28H45.085V19.84C45.085 21.5467 45.5117 22.8133 46.365 23.64C47.2183 24.44 48.405 24.84 49.925 24.84C51.605 24.84 52.9517 24.28 53.965 23.16C55.005 22.0133 55.525 20.3733 55.525 18.24V8.28H59.645V28H55.605V25.04H54.965C54.5917 25.84 53.925 26.6 52.965 27.32C52.005 28.0133 50.5917 28.36 48.725 28.36ZM61.7353 28V-1.90735e-06H65.8553V28H61.7353ZM75.5297 28.36C74.0364 28.36 72.703 28.0267 71.5297 27.36C70.3564 26.6933 69.4364 25.7467 68.7697 24.52C68.103 23.2933 67.7697 21.8267 67.7697 20.12V8.28H71.8897V19.84C71.8897 21.5467 72.3164 22.8133 73.1697 23.64C74.023 24.44 75.2097 24.84 76.7297 24.84C78.4097 24.84 79.7564 24.28 80.7697 23.16C81.8097 22.0133 82.3297 20.3733 82.3297 18.24V8.28H86.4497V28H82.4097V25.04H81.7697C81.3964 25.84 80.7297 26.6 79.7697 27.32C78.8097 28.0133 77.3964 28.36 75.5297 28.36ZM88.54 28V8.28H92.58V10.6H93.22C93.5933 9.90667 94.1933 9.29333 95.02 8.76C95.8467 8.22666 96.9667 7.96 98.38 7.96C99.8467 7.96 101.02 8.26667 101.9 8.88C102.807 9.46667 103.487 10.2267 103.94 11.16H104.58C105.033 10.2533 105.687 9.49333 106.54 8.88C107.42 8.26667 108.66 7.96 110.26 7.96C111.54 7.96 112.673 8.22666 113.66 8.76C114.647 9.26667 115.433 10.04 116.02 11.08C116.607 12.0933 116.9 13.36 116.9 14.88V28H112.78V15.2C112.78 14 112.447 13.08 111.78 12.44C111.14 11.7733 110.22 11.44 109.02 11.44C107.74 11.44 106.713 11.8533 105.94 12.68C105.167 13.5067 104.78 14.6933 104.78 16.24V28H100.66V15.2C100.66 14 100.327 13.08 99.66 12.44C99.02 11.7733 98.1 11.44 96.9 11.44C95.62 11.44 94.5933 11.8533 93.82 12.68C93.0467 13.5067 92.66 14.6933 92.66 16.24V28H88.54ZM127.877 28.56C125.877 28.56 124.13 28.1467 122.637 27.32C121.144 26.4667 119.97 25.28 119.117 23.76C118.29 22.2133 117.877 20.4267 117.877 18.4V17.92C117.877 15.8667 118.29 14.08 119.117 12.56C119.944 11.0133 121.09 9.82667 122.557 9C124.05 8.14667 125.77 7.72 127.717 7.72C129.61 7.72 131.264 8.14667 132.677 9C134.117 9.82667 135.237 10.9867 136.037 12.48C136.837 13.9733 137.237 15.72 137.237 17.72V19.28H122.077C122.13 21.0133 122.704 22.4 123.797 23.44C124.917 24.4533 126.304 24.96 127.957 24.96C129.504 24.96 130.664 24.6133 131.437 23.92C132.237 23.2267 132.85 22.4267 133.277 21.52L136.677 23.28C136.304 24.0267 135.757 24.8133 135.037 25.64C134.344 26.4667 133.424 27.16 132.277 27.72C131.13 28.28 129.664 28.56 127.877 28.56ZM122.117 16.12H133.037C132.93 14.6267 132.397 13.4667 131.437 12.64C130.477 11.7867 129.224 11.36 127.677 11.36C126.13 11.36 124.864 11.7867 123.877 12.64C122.917 13.4667 122.33 14.6267 122.117 16.12ZM138.196 28V8.28H142.236V11.24H142.876C143.25 10.44 143.916 9.69333 144.876 9C145.836 8.30667 147.263 7.96 149.156 7.96C150.65 7.96 151.97 8.29333 153.116 8.96C154.29 9.62667 155.21 10.5733 155.876 11.8C156.543 13 156.876 14.4533 156.876 16.16V28H152.756V16.48C152.756 14.7733 152.33 13.52 151.476 12.72C150.623 11.8933 149.45 11.48 147.956 11.48C146.25 11.48 144.876 12.04 143.836 13.16C142.823 14.28 142.316 15.9067 142.316 18.04V28H138.196ZM158.806 28V8.28H162.926V28H158.806ZM160.886 5.6C160.086 5.6 159.406 5.34667 158.846 4.84C158.312 4.30666 158.046 3.62666 158.046 2.8C158.046 1.97333 158.312 1.30667 158.846 0.8C159.406 0.266665 160.086 -1.90735e-06 160.886 -1.90735e-06C161.712 -1.90735e-06 162.392 0.266665 162.926 0.8C163.459 1.30667 163.726 1.97333 163.726 2.8C163.726 3.62666 163.459 4.30666 162.926 4.84C162.392 5.34667 161.712 5.6 160.886 5.6Z" fill="black"/>
</svg>
