<svg width="30" height="30" viewBox="0 0 30 30" fill="none" xmlns="http://www.w3.org/2000/svg">
<path d="M15.0472 4.1123C8.87202 4.1123 3.84653 8.95271 3.84435 14.9014C3.8429 16.8038 4.35968 18.6604 5.33952 20.2956L3.75 25.8865L9.68927 24.3863C11.3414 25.2505 13.1784 25.7012 15.0428 25.7H15.0472C21.2223 25.7 26.2478 20.8588 26.25 14.9101C26.2515 12.0287 25.0873 9.31634 22.9715 7.27755C20.8565 5.23803 18.044 4.11303 15.0472 4.1123ZM15.0472 23.8775H15.0435C13.3727 23.8775 11.7339 23.4449 10.304 22.6276L9.9629 22.4331L6.43984 23.323L7.38048 20.0133L7.15911 19.6743C6.22928 18.2562 5.73431 16.5972 5.73508 14.9014C5.73726 9.9565 9.915 5.9348 15.0508 5.9348C17.5374 5.93553 19.8752 6.86964 21.6339 8.5644C23.3925 10.2592 24.36 12.5128 24.3585 14.9094C24.3564 19.8543 20.1794 23.8775 15.0465 23.8775H15.0472ZM20.1547 17.1601C19.8745 17.0259 18.4984 16.3734 18.2415 16.2826C17.9852 16.1934 17.7987 16.1469 17.6122 16.4169C17.4264 16.6869 16.8893 17.2944 16.7267 17.4737C16.5627 17.6537 16.3994 17.6755 16.1192 17.5412C15.839 17.4062 14.9369 17.1217 13.8685 16.2028C13.036 15.4886 12.4742 14.606 12.3109 14.3353C12.1476 14.066 12.2935 13.9201 12.4335 13.7859C12.5591 13.6661 12.7137 13.4716 12.8531 13.3141C12.9924 13.1566 13.0389 13.0441 13.1332 12.8641C13.2261 12.6848 13.1797 12.5266 13.1093 12.3923C13.0389 12.2566 12.48 10.9298 12.2456 10.3905C12.0191 9.86505 11.7883 9.93545 11.6163 9.92674C11.453 9.91948 11.2672 9.9173 11.0792 9.9173C10.8941 9.9173 10.59 9.98481 10.3331 10.2548C10.0769 10.5248 9.35323 11.1766 9.35323 12.5034C9.35323 13.8309 10.3563 15.1126 10.4964 15.2926C10.6365 15.4719 12.4706 18.1959 15.2787 19.3644C15.9465 19.6409 16.4676 19.8071 16.8748 19.932C17.5454 20.1374 18.1558 20.1076 18.6377 20.0387C19.1748 19.961 20.294 19.3869 20.5263 18.7576C20.76 18.1284 20.76 17.5884 20.6903 17.4759C20.6221 17.3634 20.4348 17.2959 20.1547 17.1601V17.1601Z" fill="white"/>
</svg>
