<svg width="392" height="105" viewBox="0 0 392 105" fill="none" xmlns="http://www.w3.org/2000/svg">
<path d="M143.2 63.4635C148.874 63.4589 154.359 61.4266 158.666 57.7333C162.974 54.0401 165.819 48.929 166.689 43.3224C168.525 31.6353 159.393 21.433 146.454 21.433H125.6C125.209 21.4279 124.829 21.5645 124.531 21.8174C124.232 22.0704 124.036 22.4227 123.976 22.8094L114.682 81.8024C114.649 82.0179 114.662 82.2381 114.722 82.4479C114.781 82.6578 114.885 82.8523 115.027 83.0181C115.169 83.1839 115.345 83.3172 115.543 83.4087C115.741 83.5002 115.956 83.5478 116.174 83.5482H127.209C127.6 83.5521 127.978 83.4151 128.276 83.1622C128.573 82.9093 128.769 82.5577 128.828 82.1718L131.562 64.8424C131.621 64.4556 131.817 64.1031 132.115 63.8497C132.413 63.5963 132.792 63.4591 133.184 63.4635H143.2ZM152.435 42.7906C151.753 47.1106 148.414 50.2941 142.024 50.2941H133.849L136.327 34.5765H144.353C150.965 34.5906 153.113 38.4894 152.435 42.8024V42.7906ZM214.501 40.0141H204.024C203.633 40.0096 203.253 40.1463 202.955 40.3992C202.656 40.6521 202.46 41.0041 202.4 41.3906L202.061 43.5647C202.061 43.5647 193.927 34.6824 179.532 40.6824C171.273 44.12 167.311 51.2235 165.626 56.4235C165.626 56.4235 160.268 72.2306 172.379 80.9341C172.379 80.9341 183.605 89.3012 196.249 80.4165L196.031 81.8024C195.997 82.0179 196.01 82.2383 196.069 82.4483C196.128 82.6584 196.233 82.853 196.374 83.0189C196.516 83.1849 196.692 83.3181 196.89 83.4095C197.089 83.5008 197.304 83.5482 197.522 83.5482H207.995C208.386 83.5533 208.766 83.4167 209.065 83.1638C209.363 82.9108 209.56 82.5585 209.619 82.1718L215.991 41.76C216.024 41.5445 216.011 41.3243 215.951 41.1144C215.892 40.9046 215.788 40.7101 215.646 40.5442C215.504 40.3784 215.328 40.2452 215.13 40.1537C214.932 40.0622 214.719 40.0146 214.501 40.0141ZM199.096 62.3482C198.687 65.1639 197.269 67.7354 195.108 69.5856C192.946 71.4358 190.186 72.4391 187.341 72.4094C186.227 72.4221 185.118 72.2593 184.054 71.9271C179.536 70.4777 176.96 66.1341 177.701 61.4282C178.112 58.6048 179.535 56.0269 181.705 54.1753C183.876 52.3237 186.646 51.3248 189.499 51.3647C190.614 51.3529 191.725 51.5177 192.788 51.8494C197.289 53.2941 199.849 57.6377 199.108 62.3482H199.096Z" fill="#003087"/>
<path d="M294.052 63.4635C299.729 63.462 305.218 61.4313 309.529 57.7379C313.841 54.0446 316.69 48.9318 317.562 43.3223C319.395 31.6353 310.266 21.4329 297.322 21.4329H276.475C276.085 21.429 275.706 21.5659 275.408 21.8188C275.11 22.0716 274.914 22.4233 274.854 22.8094L265.532 81.8188C265.478 82.1438 265.534 82.4774 265.689 82.7678C265.844 83.0583 266.091 83.2896 266.391 83.4259C266.589 83.5183 266.805 83.5665 267.024 83.5671H278.061C278.452 83.5709 278.831 83.4336 279.129 83.1803C279.427 82.927 279.623 82.5747 279.682 82.1882L282.419 64.8588C282.477 64.4719 282.673 64.119 282.971 63.8656C283.269 63.6121 283.649 63.4751 284.04 63.48L294.052 63.4635ZM303.287 42.7906C302.605 47.1106 299.266 50.2941 292.873 50.2941H284.701L287.181 34.5765H295.207C301.814 34.5906 303.967 38.4894 303.287 42.8023V42.7906ZM365.351 40.0141H354.885C354.494 40.0101 354.115 40.1471 353.817 40.3999C353.52 40.6528 353.323 41.0045 353.264 41.3906L352.92 43.5647C352.92 43.5647 344.788 34.6823 330.393 40.6823C322.136 44.12 318.172 51.2235 316.485 56.4235C316.485 56.4235 311.129 72.2306 323.238 80.9341C323.238 80.9341 334.466 89.3012 347.111 80.4165L346.892 81.8023C346.838 82.1274 346.894 82.4609 347.049 82.7514C347.204 83.0419 347.451 83.2731 347.751 83.4094C347.948 83.5035 348.165 83.5506 348.384 83.5506H358.856C359.248 83.5565 359.628 83.4199 359.926 83.1662C360.225 82.9125 360.421 82.5591 360.478 82.1718L366.852 41.76C366.883 41.5438 366.868 41.3233 366.808 41.1132C366.748 40.9032 366.644 40.7082 366.504 40.5412C366.362 40.3738 366.185 40.2397 365.986 40.1486C365.787 40.0575 365.57 40.0116 365.351 40.0141ZM349.948 62.3482C349.543 65.166 348.127 67.7404 345.964 69.5915C343.802 71.4426 341.04 72.4441 338.193 72.4094C337.077 72.4226 335.966 72.2598 334.901 71.9271C330.381 70.4776 327.802 66.1341 328.544 61.4282C328.953 58.6121 330.37 56.0401 332.532 54.1894C334.693 52.3387 337.453 51.3351 340.299 51.3647C341.416 51.3529 342.527 51.5153 343.591 51.8494C348.139 53.2941 350.706 57.6376 349.96 62.3482H349.948Z" fill="#0070E0"/>
<path d="M252.953 41.0141L240.325 62.3294L233.918 41.1718C233.817 40.836 233.611 40.5418 233.329 40.3332C233.047 40.1245 232.706 40.0126 232.355 40.0141H220.962C220.766 40.0103 220.572 40.0543 220.396 40.1422C220.22 40.23 220.068 40.3592 219.954 40.5187C219.839 40.6781 219.765 40.863 219.737 41.0575C219.709 41.252 219.729 41.4502 219.795 41.6353L231.278 77.2729L220.894 94.0682C220.777 94.2531 220.712 94.4662 220.705 94.6851C220.699 94.9039 220.752 95.1204 220.858 95.3117C220.965 95.5031 221.121 95.6621 221.31 95.772C221.5 95.882 221.715 95.9388 221.934 95.9365H234.209C234.56 95.9383 234.906 95.8485 235.212 95.676C235.517 95.5035 235.773 95.2543 235.953 94.9529L268.028 41.8894C268.144 41.7042 268.207 41.4913 268.212 41.2731C268.217 41.0549 268.162 40.8394 268.055 40.6494C267.948 40.4594 267.791 40.3019 267.602 40.1934C267.412 40.0849 267.197 40.0295 266.979 40.0329H254.708C254.355 40.0288 254.008 40.1173 253.7 40.2894C253.392 40.4616 253.134 40.7114 252.953 41.0141Z" fill="#003087"/>
<path d="M377.134 22.793L367.812 81.8024C367.758 82.1274 367.814 82.4609 367.969 82.7514C368.124 83.0419 368.371 83.2731 368.671 83.4094C368.868 83.5035 369.085 83.5506 369.304 83.5506H380.336C380.728 83.5555 381.107 83.4185 381.405 83.165C381.704 82.9116 381.9 82.5587 381.958 82.1718L391.282 23.1624C391.317 22.9468 391.304 22.7263 391.245 22.5162C391.186 22.306 391.081 22.1114 390.939 21.9459C390.797 21.7803 390.621 21.6473 390.422 21.5559C390.224 21.4646 390.009 21.417 389.791 21.4165H378.755C378.365 21.4125 377.986 21.5495 377.688 21.8023C377.39 22.0552 377.194 22.4069 377.134 22.793Z" fill="#0070E0"/>
<path d="M83.4024 48.3765C81.0353 61.8706 70.0259 72.0706 55.5789 72.0706H46.4071C44.5365 72.0706 42.6518 73.8024 42.353 75.7177L38.3365 101.212C38.1036 102.664 37.4236 103.146 35.953 103.146H21.2C19.7083 103.146 19.3553 102.647 19.5789 101.176L21.273 83.5459L3.56474 82.6306C2.07533 82.6306 1.53651 81.8188 1.74827 80.3318L13.8306 3.72001C14.0636 2.26824 14.9671 1.64471 16.433 1.64471H47.0753C61.8259 1.64471 71.1577 11.5741 72.2989 24.4494C81.0753 30.3788 85.1789 38.2682 83.4047 48.3741L83.4024 48.3765Z" fill="#001C64"/>
<path d="M25.7624 55L21.2753 83.5482L18.4377 101.459C18.385 101.804 18.4072 102.157 18.503 102.493C18.5987 102.829 18.7657 103.14 18.9925 103.406C19.2193 103.671 19.5006 103.885 19.8174 104.032C20.1342 104.179 20.479 104.257 20.8283 104.259H36.4094C37.1206 104.258 37.8082 104.004 38.3486 103.541C38.889 103.079 39.2468 102.439 39.3577 101.736L43.4589 75.7129C43.5702 75.0109 43.9282 74.3715 44.4686 73.9097C45.0089 73.4478 45.6962 73.1937 46.4071 73.1929H55.5788C62.5677 73.1838 69.3234 70.6783 74.6281 66.1282C79.9328 61.578 83.4376 55.2825 84.5106 48.3765C86.0988 38.2424 81 29.0165 72.273 24.4588C72.2532 25.5386 72.1589 26.6156 71.9906 27.6824C70.9137 34.5847 67.4076 40.8758 62.1038 45.4225C56.8 49.9692 50.0471 52.4728 43.0612 52.4824H28.7083C27.9979 52.4826 27.311 52.7363 26.7709 53.1978C26.2309 53.6593 25.8733 54.2984 25.7624 55Z" fill="#0070E0"/>
<path d="M21.273 83.5482H3.12944C2.7794 83.5465 2.43384 83.4694 2.1163 83.3221C1.79877 83.1748 1.51673 82.9607 1.2894 82.6945C1.06207 82.4283 0.894793 82.1163 0.798975 81.7796C0.703157 81.4429 0.681046 81.0895 0.734149 80.7435L12.96 3.22824C13.0699 2.52574 13.4271 1.88559 13.9672 1.42313C14.5074 0.960671 15.1949 0.706313 15.9059 0.705887H47.0589C61.8094 0.705887 72.5341 11.44 72.2824 24.4447C68.3564 22.4193 63.9964 21.3799 59.5789 21.4165H33.6071C32.8958 21.4167 32.208 21.6705 31.6671 22.1324C31.1263 22.5943 30.768 23.234 30.6565 23.9365L25.7624 55L21.273 83.5482Z" fill="#003087"/>
</svg>
