<svg width="291" height="74" viewBox="0 0 291 74" fill="none" xmlns="http://www.w3.org/2000/svg">
<path fill-rule="evenodd" clip-rule="evenodd" d="M84.6716 45.695L87.6755 41.625C89.7407 43.845 92.9323 45.695 97.0626 45.695C101.381 45.695 103.07 43.66 103.07 41.625C103.07 35.52 85.7981 39.22 85.7981 28.49C85.7981 23.68 90.1162 19.795 96.6871 19.795C101.193 19.795 105.136 21.275 107.764 23.865L104.76 27.75C102.319 25.345 99.3155 24.42 96.1239 24.42C93.12 24.42 91.0549 25.9 91.0549 28.12C91.0549 33.67 108.327 30.155 108.327 41.07C108.327 45.88 104.76 50.135 96.8749 50.135C91.4303 50.505 87.3 48.47 84.6716 45.695Z" fill="#3B77BC"/>
<path fill-rule="evenodd" clip-rule="evenodd" d="M127.665 49.95V36.63C127.665 33.3 125.975 32.19 123.347 32.19C120.906 32.19 118.841 33.67 117.902 34.965V49.765H113.208V28.675H117.902V31.45C119.404 29.785 122.22 28.12 125.599 28.12C130.293 28.12 132.546 30.525 132.546 34.965V49.95H127.665Z" fill="#3B77BC"/>
<path d="M151.508 49.95V47.545C149.818 49.395 147.378 50.32 144.561 50.32C140.994 50.32 137.052 47.915 137.052 43.29C137.052 38.295 140.994 36.26 144.561 36.26C147.565 36.26 150.006 37.185 151.508 39.035V35.89C151.508 33.485 149.443 32.005 146.439 32.005C143.998 32.005 141.933 32.93 140.056 34.78L138.178 31.635C140.619 29.23 143.81 28.12 147.19 28.12C152.071 28.12 156.201 30.155 156.201 35.705V49.95H151.508ZM151.508 45.14V41.81C150.381 40.33 148.316 39.59 146.439 39.59C143.81 39.59 141.745 41.07 141.745 43.475C141.745 45.88 143.81 47.36 146.439 47.36C148.504 47.175 150.569 46.435 151.508 45.14Z" fill="#3B77BC"/>
<path d="M167.091 46.99V58.09H162.397V28.675H167.091V31.635C168.78 29.6 171.221 28.12 174.037 28.12C179.669 28.12 183.612 32.19 183.612 39.22C183.612 46.25 179.669 50.32 174.037 50.32C171.221 50.505 168.78 49.21 167.091 46.99ZM178.731 39.22C178.731 35.15 176.29 32.19 172.535 32.19C170.282 32.19 168.029 33.485 167.091 34.965V43.29C168.029 44.955 170.47 46.25 172.535 46.25C176.29 46.25 178.731 43.475 178.731 39.22Z" fill="#3B77BC"/>
<path fill-rule="evenodd" clip-rule="evenodd" d="M186.428 45.695L189.432 41.625C191.497 43.845 194.688 45.695 198.819 45.695C203.137 45.695 204.826 43.66 204.826 41.625C204.826 35.52 187.554 39.22 187.554 28.49C187.554 23.68 191.872 19.795 198.443 19.795C202.949 19.795 206.892 21.275 209.52 23.865L206.516 27.75C204.075 25.345 201.072 24.42 197.88 24.42C194.876 24.42 192.811 25.9 192.811 28.12C192.811 33.67 210.083 30.155 210.083 41.07C210.083 45.88 206.516 50.135 198.631 50.135C192.999 50.505 189.056 48.47 186.428 45.695Z" fill="#3B77BC"/>
<path fill-rule="evenodd" clip-rule="evenodd" d="M213.463 39.22C213.463 32.745 217.968 28.12 224.539 28.12C228.857 28.12 231.298 29.97 232.8 31.82L229.796 34.595C228.67 32.93 226.98 32.19 224.915 32.19C220.972 32.19 218.344 35.15 218.344 39.22C218.344 43.29 220.972 46.25 224.915 46.25C226.98 46.25 228.67 45.325 229.796 43.66L232.8 46.435C231.298 48.47 228.857 50.135 224.539 50.135C217.968 50.505 213.463 45.695 213.463 39.22Z" fill="#3B77BC"/>
<path d="M250.26 49.95V47.545C248.57 49.395 246.13 50.32 243.314 50.32C239.747 50.32 235.804 47.915 235.804 43.29C235.804 38.295 239.747 36.26 243.314 36.26C246.318 36.26 248.758 37.185 250.26 39.035V35.89C250.26 33.485 248.195 32.005 245.191 32.005C242.75 32.005 240.685 32.93 238.808 34.78L236.93 31.635C239.371 29.23 242.563 28.12 245.942 28.12C250.823 28.12 254.954 30.155 254.954 35.705V49.95H250.26ZM250.26 45.14V41.81C249.134 40.33 247.068 39.59 245.191 39.59C242.563 39.59 240.498 41.07 240.498 43.475C240.498 45.88 242.563 47.36 245.191 47.36C247.068 47.175 249.134 46.435 250.26 45.14Z" fill="#3B77BC"/>
<path fill-rule="evenodd" clip-rule="evenodd" d="M275.605 49.95V36.63C275.605 33.3 273.916 32.19 271.287 32.19C268.847 32.19 266.781 33.67 265.843 34.965V49.765H260.961V28.675H265.655V31.45C267.157 29.785 269.973 28.12 273.352 28.12C278.046 28.12 280.299 30.525 280.299 34.965V49.95H275.605Z" fill="#3B77BC"/>
<path d="M37.5485 9.25C21.9456 9.25 9.38721 21.625 9.38721 37C9.38721 52.375 21.9456 64.75 37.5485 64.75C53.1514 64.75 65.7098 52.375 65.7098 37C65.7098 21.625 53.1514 9.25 37.5485 9.25ZM37.5485 62.875C23.0873 62.875 11.29 51.25 11.29 37C11.29 22.75 23.0873 11.125 37.5485 11.125C52.0097 11.125 63.807 22.75 63.807 37C63.807 51.25 52.0097 62.875 37.5485 62.875Z" fill="#3B77BC"/>
<path fill-rule="evenodd" clip-rule="evenodd" d="M33.9327 25.9H28.0223C27.1531 25.9 26.2839 26.5852 26.2839 27.613V33.437C26.2839 34.2935 26.9793 35.15 28.0223 35.15H33.9327C34.8019 35.15 35.671 34.4648 35.671 33.437V27.613C35.4972 26.5852 34.8019 25.9 33.9327 25.9Z" fill="#3B77BC"/>
<path fill-rule="evenodd" clip-rule="evenodd" d="M33.9327 38.85H28.0223C27.1531 38.85 26.2839 39.5352 26.2839 40.563V46.387C26.2839 47.2435 26.9793 48.1 28.0223 48.1H33.9327C34.8019 48.1 35.671 47.4148 35.671 46.387V40.563C35.4972 39.5352 34.8019 38.85 33.9327 38.85Z" fill="#3B77BC"/>
<path fill-rule="evenodd" clip-rule="evenodd" d="M47.0748 25.9H41.1644C40.2952 25.9 39.426 26.5852 39.426 27.613V33.437C39.426 34.2935 40.1214 35.15 41.1644 35.15H47.0748C47.9439 35.15 48.8131 34.4648 48.8131 33.437V27.613C48.8131 26.5852 48.1178 25.9 47.0748 25.9Z" fill="#3B77BC"/>
</svg>
