<svg width="63" height="21" viewBox="0 0 63 21" fill="none" xmlns="http://www.w3.org/2000/svg">
<g clip-path="url(#clip0_853_1444)">
<path d="M24.1643 0.767657L15.8195 20.0176H10.5508L6.7855 4.65628C6.55687 3.71135 6.3525 3.36358 5.62507 2.96664C4.43692 2.31327 2.46592 1.70556 0.730469 1.32619L0.855172 0.767657H9.33845C10.4192 0.767657 11.3822 1.48426 11.6108 2.73129L13.5576 13.8702L18.9267 0.767657H24.1643ZM44.6329 13.7332C44.7264 8.65379 37.6738 8.37277 37.7534 6.10353C37.7777 5.41503 38.4462 4.68087 39.8907 4.49118C40.6043 4.39985 42.5753 4.32608 44.7922 5.3518L45.724 1.26998C44.529 0.8344 42.991 0.416382 41.0719 0.416382C36.1461 0.416382 32.6406 3.03338 32.5609 6.77798C32.4882 9.54954 34.9753 11.0952 36.8528 12.0155C38.7822 12.9604 39.4231 13.5646 39.4058 14.4077C39.3746 15.7004 37.8296 16.2694 36.3956 16.2905C33.8876 16.3292 32.4432 15.6126 31.2931 15.0751L30.3336 19.2939C31.4906 19.8279 33.6348 20.2951 35.8621 20.3161C41.0996 20.3161 44.5601 17.7343 44.6329 13.7297M57.5604 20.014H62.171L58.4126 0.767657H54.1588C53.2028 0.767657 52.3887 1.32267 52.0181 2.17978L44.29 20.0176H49.524L50.6048 17.1406H56.9993L57.5604 20.0176V20.014ZM52.0908 13.1923L54.817 5.96302L56.2268 13.1923H52.0908ZM31.2862 0.767657L26.8973 20.0176H21.9127L26.3015 0.767657H31.2862Z" fill="#1434CB"/>
</g>
<defs>
<clipPath id="clip0_853_1444">
<rect width="61.4405" height="19.9033" fill="white" transform="translate(0.730469 0.416382)"/>
</clipPath>
</defs>
</svg>
