<svg width="167" height="45" viewBox="0 0 167 45" fill="none" xmlns="http://www.w3.org/2000/svg">
<path fill-rule="evenodd" clip-rule="evenodd" d="M12.9405 22.5588H26.577C28.6531 22.5588 30.3518 24.2427 30.3518 26.2542C30.3518 28.3125 28.6531 29.9964 26.577 29.9964H3.7866C2.79572 30.0432 1.80483 29.6223 1.09705 28.9206C-0.365684 27.4704 -0.365684 25.0848 1.09705 23.6346L23.9346 1.08765C25.3974 -0.362535 27.8038 -0.362535 29.2666 1.08765C30.7292 2.5377 30.7292 4.92345 29.2666 6.37349L12.9405 22.5588ZM11.5838 7.27274H3.84524C1.73035 7.27274 3.70836e-07 5.6013 3.70836e-07 3.6138C3.70836e-07 1.62615 1.73035 0 3.84524 0H19.3222L11.5838 7.27274ZM34.895 4.3116C36.7559 0.0907502 44.8976 0 44.8976 0C57.5058 0 57.9246 8.35094 57.8781 8.35094V23.1468C57.8781 30.0907 49.5967 29.2738 49.5967 29.2738V25.0983C46.9448 29.5461 41.3618 30 41.3618 30C31.3125 30 31.3125 21.6943 31.3125 21.6943C31.3125 8.94104 49.7362 11.0287 49.7362 11.0287C49.7362 11.0287 50.3411 5.58239 43.781 5.7186C40.4779 5.85479 37.2677 6.89864 34.5692 8.71409C34.3366 6.98939 34.895 4.3116 34.895 4.3116ZM39.3611 19.8789C39.3611 19.8789 39.4542 24.2359 43.7344 24.0999C50.5737 23.9182 49.8758 16.6111 49.7827 16.6111C49.7827 15.5218 44.5254 16.1572 44.5254 16.1572C38.7563 16.7019 39.3611 19.8789 39.3611 19.8789ZM76.8493 0.0343505C76.8493 0.0343505 69.6137 0.1725 68.0539 5.1465V0.0343505C68.0539 0.0343505 59.7784 -0.840779 59.7784 6.25184C59.7784 13.3444 59.8651 44.9715 59.8651 44.9715C59.8651 44.9715 68.0973 45.8004 68.0973 38.5236V25.9176C68.0973 25.9176 70.8268 30.5232 76.0261 30.5232C82.0052 30.5232 88.2443 26.194 88.2443 14.1273C88.2443 -0.14994 76.8493 0.0343505 76.8493 0.0343505ZM72.9499 23.4766C70.5668 23.4766 67.7073 20.2068 67.7073 14.4958C67.7073 8.78489 70.5235 6.29789 73.7297 6.29789C73.7297 6.29789 79.9689 6.5742 79.9689 14.3116C79.9689 22.0489 75.6361 23.4766 72.9499 23.4766ZM98.4175 5.1465C99.9773 0.1725 107.213 0.0343505 107.213 0.0343505C107.213 0.0343505 118.608 -0.14994 118.608 14.1273C118.608 26.194 112.369 30.5232 106.39 30.5232C101.19 30.5232 98.4609 25.9176 98.4609 25.9176V38.5236C98.4609 45.8004 90.2287 44.9715 90.2287 44.9715C90.2287 44.9715 90.142 13.3444 90.142 6.25184C90.142 -0.840779 98.4175 0.0343505 98.4175 0.0343505L98.4175 5.1465ZM98.0709 14.4958C98.0709 20.2068 100.93 23.4766 103.313 23.4766C106 23.4766 110.332 22.0489 110.332 14.3116C110.332 6.5742 104.093 6.29789 104.093 6.29789C100.887 6.29789 98.0709 8.78489 98.0709 14.4958ZM140.986 1.6104C139.04 0.55215 136.828 0 134.617 0C126.787 0 120.506 6.71775 120.506 15C120.506 23.2822 126.831 30 134.617 30C135.022 30 135.353 29.9614 135.711 29.9196L135.811 29.908C137.625 29.6318 139.394 29.1257 141.031 28.2974C142.225 27.6533 143.375 26.7791 144.348 25.7668C145.366 24.5705 146.073 23.144 146.427 21.5797H145.233C145.233 21.5797 143.021 23.9263 136.209 23.9263C129.397 23.9263 128.468 16.8404 128.468 16.8404H147.002C147.179 14.6779 147.533 5.42939 140.986 1.6104ZM139.438 12.0552H128.468C128.468 12.0552 128.733 5.47545 134.219 5.47545C139.704 5.47545 139.438 12.0552 139.438 12.0552ZM157.317 16.1275C157.317 10.3602 160.091 7.84844 163.692 7.84844C164.859 7.94159 165.978 8.31359 167 8.87174V0.0346499C165.102 0.0346499 159.409 0.0346494 157.317 5.15085V0.0346499C157.317 0.0346499 148.972 -0.849104 148.972 6.31365C148.972 13.4764 149.02 29.988 149.02 29.988C149.02 29.988 157.366 30.5926 157.366 23.2438C157.317 16.8717 157.317 16.267 157.317 16.1275ZM160.738 26.646H159.409V26.25H162.608V26.646H161.307V30H160.765L160.738 26.646ZM163.394 26.25H164.046L164.885 28.2531L165.184 29.0217H165.21L165.509 28.2531L166.349 26.25H167V30H166.485V27.927C166.485 27.7639 166.499 27.5718 166.513 27.3796C166.525 27.1875 166.539 26.9953 166.539 26.8323H166.513L166.186 27.6475L165.347 29.604H165.02L164.208 27.6475L163.856 26.8323H163.829C163.856 27.1584 163.882 27.6009 163.882 27.927V29.9767H163.367L163.394 26.25Z" fill="#005CB9"/>
</svg>
